<svg width="170" height="170" viewBox="0 0 170 170" fill="none" xmlns="http://www.w3.org/2000/svg">
<path d="M48.2153 63V51.8L51.6553 51.8C53.6286 51.8 55.0793 52.3013 56.0073 53.304C56.9459 54.3067 57.4153 55.6827 57.4153 57.432C57.4153 59.1493 56.9459 60.5093 56.0073 61.512C55.0793 62.504 53.6286 63 51.6553 63H48.2153ZM49.5593 61.88H51.6233C52.7113 61.88 53.5753 61.704 54.2153 61.352C54.8659 60.9893 55.3299 60.4773 55.6073 59.816C55.8846 59.144 56.0233 58.3493 56.0233 57.432C56.0233 56.4933 55.8846 55.688 55.6073 55.016C55.3299 54.344 54.8659 53.8267 54.2153 53.464C53.5753 53.1013 52.7113 52.92 51.6233 52.92L49.5593 52.92V61.88ZM59.3559 63V51.8H60.6999V63H59.3559ZM66.6426 63.192C65.8213 63.192 65.1066 63.0427 64.4986 62.744C63.8906 62.4453 63.4213 62.0293 63.0906 61.496C62.76 60.9627 62.5946 60.344 62.5946 59.64H64.0026C64.0026 60.0773 64.104 60.4827 64.3066 60.856C64.5093 61.2187 64.8026 61.512 65.1866 61.736C65.5813 61.9493 66.0666 62.056 66.6426 62.056C67.4 62.056 67.9866 61.8747 68.4026 61.512C68.8186 61.1493 69.0266 60.696 69.0266 60.152C69.0266 59.704 68.9306 59.3467 68.7386 59.08C68.5466 58.8027 68.2853 58.5787 67.9546 58.408C67.6346 58.2373 67.2613 58.088 66.8346 57.96C66.4186 57.832 65.9813 57.688 65.5226 57.528C64.6586 57.2293 64.0186 56.8613 63.6026 56.424C63.1866 55.976 62.9786 55.3947 62.9786 54.68C62.968 54.0827 63.1066 53.5547 63.3946 53.096C63.6826 52.6267 64.088 52.264 64.6106 52.008C65.144 51.7413 65.7733 51.608 66.4986 51.608C67.2133 51.608 67.832 51.7413 68.3546 52.008C68.888 52.2747 69.2986 52.6427 69.5866 53.112C69.8853 53.5813 70.04 54.1147 70.0506 54.712H68.6426C68.6426 54.4027 68.5626 54.0987 68.4026 53.8C68.2426 53.4907 67.9973 53.24 67.6666 53.048C67.3466 52.856 66.9413 52.76 66.4506 52.76C65.8426 52.7493 65.3413 52.904 64.9466 53.224C64.5626 53.544 64.3706 53.9867 64.3706 54.552C64.3706 55.032 64.504 55.4 64.7706 55.656C65.048 55.912 65.432 56.1253 65.9226 56.296C66.4133 56.456 66.9786 56.6427 67.6186 56.856C68.152 57.048 68.632 57.272 69.0586 57.528C69.4853 57.784 69.816 58.1147 70.0506 58.52C70.296 58.9253 70.4186 59.4427 70.4186 60.072C70.4186 60.6053 70.28 61.112 70.0026 61.592C69.7253 62.0613 69.304 62.4453 68.7386 62.744C68.184 63.0427 67.4853 63.192 66.6426 63.192ZM77.2366 63.192C76.138 63.192 75.1886 62.952 74.3886 62.472C73.5993 61.9813 72.986 61.304 72.5486 60.44C72.1113 59.5653 71.8926 58.552 71.8926 57.4C71.8926 56.2587 72.1113 55.256 72.5486 54.392C72.986 53.5173 73.5993 52.8347 74.3886 52.344C75.1886 51.8533 76.138 51.608 77.2366 51.608C78.5166 51.608 79.5566 51.9173 80.3566 52.536C81.1673 53.144 81.6846 53.9973 81.9086 55.096H80.4206C80.25 54.4027 79.898 53.848 79.3646 53.432C78.842 53.0053 78.1326 52.792 77.2366 52.792C76.4366 52.792 75.738 52.9787 75.1406 53.352C74.5433 53.7147 74.0793 54.2427 73.7486 54.936C73.4286 55.6187 73.2686 56.44 73.2686 57.4C73.2686 58.36 73.4286 59.1867 73.7486 59.88C74.0793 60.5627 74.5433 61.0907 75.1406 61.464C75.738 61.8267 76.4366 62.008 77.2366 62.008C78.1326 62.008 78.842 61.8053 79.3646 61.4C79.898 60.984 80.25 60.4347 80.4206 59.752H81.9086C81.6846 60.8293 81.1673 61.672 80.3566 62.28C79.5566 62.888 78.5166 63.192 77.2366 63.192ZM88.9283 63.192C87.8296 63.192 86.8643 62.952 86.0323 62.472C85.2109 61.9813 84.5656 61.2987 84.0963 60.424C83.6376 59.5493 83.4083 58.5413 83.4083 57.4C83.4083 56.2587 83.6376 55.256 84.0963 54.392C84.5656 53.5173 85.2109 52.8347 86.0323 52.344C86.8643 51.8533 87.8296 51.608 88.9283 51.608C90.0376 51.608 91.0029 51.8533 91.8243 52.344C92.6563 52.8347 93.3016 53.5173 93.7603 54.392C94.2189 55.256 94.4483 56.2587 94.4483 57.4C94.4483 58.5413 94.2189 59.5493 93.7603 60.424C93.3016 61.2987 92.6563 61.9813 91.8243 62.472C91.0029 62.952 90.0376 63.192 88.9283 63.192ZM88.9283 62.008C89.7496 62.008 90.4696 61.8267 91.0883 61.464C91.7176 61.0907 92.2029 60.5627 92.5443 59.88C92.8963 59.1867 93.0723 58.36 93.0723 57.4C93.0723 56.44 92.8963 55.6187 92.5443 54.936C92.2029 54.2533 91.7176 53.7307 91.0883 53.368C90.4696 52.9947 89.7496 52.808 88.9283 52.808C88.1069 52.808 87.3816 52.9947 86.7523 53.368C86.1336 53.7307 85.6483 54.2533 85.2963 54.936C84.9549 55.6187 84.7843 56.44 84.7843 57.4C84.7843 58.36 84.9549 59.1867 85.2963 59.88C85.6483 60.5627 86.1336 61.0907 86.7523 61.464C87.3816 61.8267 88.1069 62.008 88.9283 62.008ZM99.3256 63L95.1176 51.8H96.5736L100.11 61.576L103.678 51.8H105.102L100.894 63H99.3256ZM106.637 63V51.8H113.565V52.904H107.981V56.808H113.085V57.896H107.981V61.896H113.565V63H106.637ZM115.668 63V51.8H119.284C120.159 51.8 120.874 51.944 121.428 52.232C121.983 52.52 122.394 52.9147 122.66 53.416C122.927 53.9173 123.06 54.472 123.06 55.08C123.06 55.784 122.868 56.4187 122.484 56.984C122.111 57.5493 121.524 57.9493 120.724 58.184L123.172 63H121.588L119.316 58.376H119.22H117.012V63H115.668ZM117.012 57.32H119.188C120.052 57.32 120.682 57.112 121.076 56.696C121.471 56.28 121.668 55.7467 121.668 55.096C121.668 54.4347 121.471 53.912 121.076 53.528C120.692 53.1333 120.058 52.936 119.172 52.936H117.012V57.32ZM32.3267 89.192C31.228 89.192 30.2627 88.952 29.4307 88.472C28.6094 87.9813 27.964 87.2987 27.4947 86.424C27.036 85.5493 26.8067 84.5413 26.8067 83.4C26.8067 82.2587 27.036 81.256 27.4947 80.392C27.964 79.5173 28.6094 78.8347 29.4307 78.344C30.2627 77.8533 31.228 77.608 32.3267 77.608C33.436 77.608 34.4014 77.8533 35.2227 78.344C36.0547 78.8347 36.7 79.5173 37.1587 80.392C37.6174 81.256 37.8467 82.2587 37.8467 83.4C37.8467 84.5413 37.6174 85.5493 37.1587 86.424C36.7 87.2987 36.0547 87.9813 35.2227 88.472C34.4014 88.952 33.436 89.192 32.3267 89.192ZM32.3267 88.008C33.148 88.008 33.868 87.8267 34.4867 87.464C35.116 87.0907 35.6014 86.5627 35.9427 85.88C36.2947 85.1867 36.4707 84.36 36.4707 83.4C36.4707 82.44 36.2947 81.6187 35.9427 80.936C35.6014 80.2533 35.116 79.7307 34.4867 79.368C33.868 78.9947 33.148 78.808 32.3267 78.808C31.5054 78.808 30.78 78.9947 30.1507 79.368C29.532 79.7307 29.0467 80.2533 28.6947 80.936C28.3534 81.6187 28.1827 82.44 28.1827 83.4C28.1827 84.36 28.3534 85.1867 28.6947 85.88C29.0467 86.5627 29.532 87.0907 30.1507 87.464C30.78 87.8267 31.5054 88.008 32.3267 88.008ZM43.8336 89.192C43.0656 89.192 42.3669 89.0427 41.7376 88.744C41.1189 88.4347 40.6229 87.96 40.2496 87.32C39.8762 86.68 39.6896 85.864 39.6896 84.872V77.8H41.0336V84.888C41.0336 85.976 41.2949 86.7653 41.8176 87.256C42.3402 87.7467 43.0229 87.992 43.8656 87.992C44.7082 87.992 45.3856 87.7467 45.8976 87.256C46.4096 86.7653 46.6656 85.976 46.6656 84.888L46.6656 77.8H48.0096L48.0096 84.872C48.0096 85.864 47.8229 86.68 47.4496 87.32C47.0762 87.96 46.5749 88.4347 45.9456 88.744C45.3162 89.0427 44.6122 89.192 43.8336 89.192ZM50.2856 89L50.2856 77.8H53.9016C54.7762 77.8 55.4909 77.944 56.0456 78.232C56.6002 78.52 57.0109 78.9147 57.2776 79.416C57.5442 79.9173 57.6776 80.472 57.6776 81.08C57.6776 81.784 57.4856 82.4187 57.1016 82.984C56.7282 83.5493 56.1416 83.9493 55.3416 84.184L57.7896 89H56.2056L53.9336 84.376H53.8376H51.6296V89H50.2856ZM51.6296 83.32H53.8056C54.6696 83.32 55.2989 83.112 55.6936 82.696C56.0882 82.28 56.2856 81.7467 56.2856 81.096C56.2856 80.4347 56.0882 79.912 55.6936 79.528C55.3096 79.1333 54.6749 78.936 53.7896 78.936H51.6296V83.32ZM64.0043 89V77.8H67.6843C68.559 77.8 69.279 77.944 69.8443 78.232C70.4096 78.52 70.8256 78.9093 71.0923 79.4C71.3696 79.8907 71.5083 80.4453 71.5083 81.064C71.5083 81.672 71.375 82.2213 71.1083 82.712C70.8416 83.2027 70.4256 83.5973 69.8603 83.896C69.295 84.184 68.5696 84.328 67.6843 84.328H65.3483V89H64.0043ZM65.3483 83.192H67.6523C68.5483 83.192 69.183 83.0053 69.5563 82.632C69.9403 82.248 70.1323 81.7253 70.1323 81.064C70.1323 80.392 69.9403 79.8693 69.5563 79.496C69.183 79.112 68.5483 78.92 67.6523 78.92H65.3483V83.192ZM73.2699 89V77.8H76.8859C77.7606 77.8 78.4753 77.944 79.0299 78.232C79.5846 78.52 79.9953 78.9147 80.2619 79.416C80.5286 79.9173 80.6619 80.472 80.6619 81.08C80.6619 81.784 80.4699 82.4187 80.0859 82.984C79.7126 83.5493 79.1259 83.9493 78.3259 84.184L80.7739 89H79.1899L76.9179 84.376H76.8219H74.6139V89H73.2699ZM74.6139 83.32H76.7899C77.6539 83.32 78.2833 83.112 78.6779 82.696C79.0726 82.28 79.2699 81.7467 79.2699 81.096C79.2699 80.4347 79.0726 79.912 78.6779 79.528C78.2939 79.1333 77.6593 78.936 76.7739 78.936H74.6139V83.32ZM87.8423 89.192C86.7436 89.192 85.7783 88.952 84.9463 88.472C84.125 87.9813 83.4796 87.2987 83.0103 86.424C82.5516 85.5493 82.3223 84.5413 82.3223 83.4C82.3223 82.2587 82.5516 81.256 83.0103 80.392C83.4796 79.5173 84.125 78.8347 84.9463 78.344C85.7783 77.8533 86.7436 77.608 87.8423 77.608C88.9516 77.608 89.917 77.8533 90.7383 78.344C91.5703 78.8347 92.2156 79.5173 92.6743 80.392C93.133 81.256 93.3623 82.2587 93.3623 83.4C93.3623 84.5413 93.133 85.5493 92.6743 86.424C92.2156 87.2987 91.5703 87.9813 90.7383 88.472C89.917 88.952 88.9516 89.192 87.8423 89.192ZM87.8423 88.008C88.6636 88.008 89.3836 87.8267 90.0023 87.464C90.6316 87.0907 91.117 86.5627 91.4583 85.88C91.8103 85.1867 91.9863 84.36 91.9863 83.4C91.9863 82.44 91.8103 81.6187 91.4583 80.936C91.117 80.2533 90.6316 79.7307 90.0023 79.368C89.3836 78.9947 88.6636 78.808 87.8423 78.808C87.021 78.808 86.2956 78.9947 85.6663 79.368C85.0476 79.7307 84.5623 80.2533 84.2103 80.936C83.869 81.6187 83.6983 82.44 83.6983 83.4C83.6983 84.36 83.869 85.1867 84.2103 85.88C84.5623 86.5627 85.0476 87.0907 85.6663 87.464C86.2956 87.8267 87.021 88.008 87.8423 88.008ZM95.3012 89V77.8H98.7412C100.715 77.8 102.165 78.3013 103.093 79.304C104.032 80.3067 104.501 81.6827 104.501 83.432C104.501 85.1493 104.032 86.5093 103.093 87.512C102.165 88.504 100.715 89 98.7412 89H95.3012ZM96.6452 87.88H98.7092C99.7972 87.88 100.661 87.704 101.301 87.352C101.952 86.9893 102.416 86.4773 102.693 85.816C102.971 85.144 103.109 84.3493 103.109 83.432C103.109 82.4933 102.971 81.688 102.693 81.016C102.416 80.344 101.952 79.8267 101.301 79.464C100.661 79.1013 99.7972 78.92 98.7092 78.92H96.6452V87.88ZM110.49 89.192C109.722 89.192 109.023 89.0427 108.394 88.744C107.775 88.4347 107.279 87.96 106.906 87.32C106.532 86.68 106.346 85.864 106.346 84.872V77.8H107.69V84.888C107.69 85.976 107.951 86.7653 108.474 87.256C108.996 87.7467 109.679 87.992 110.522 87.992C111.364 87.992 112.042 87.7467 112.554 87.256C113.066 86.7653 113.322 85.976 113.322 84.888V77.8H114.666V84.872C114.666 85.864 114.479 86.68 114.106 87.32C113.732 87.96 113.231 88.4347 112.602 88.744C111.972 89.0427 111.268 89.192 110.49 89.192ZM121.854 89.192C120.755 89.192 119.806 88.952 119.006 88.472C118.216 87.9813 117.603 87.304 117.166 86.44C116.728 85.5653 116.51 84.552 116.51 83.4C116.51 82.2587 116.728 81.256 117.166 80.392C117.603 79.5173 118.216 78.8347 119.006 78.344C119.806 77.8533 120.755 77.608 121.854 77.608C123.134 77.608 124.174 77.9173 124.974 78.536C125.784 79.144 126.302 79.9973 126.526 81.096H125.038C124.867 80.4027 124.515 79.848 123.982 79.432C123.459 79.0053 122.75 78.792 121.854 78.792C121.054 78.792 120.355 78.9787 119.758 79.352C119.16 79.7147 118.696 80.2427 118.366 80.936C118.046 81.6187 117.886 82.44 117.886 83.4C117.886 84.36 118.046 85.1867 118.366 85.88C118.696 86.5627 119.16 87.0907 119.758 87.464C120.355 87.8267 121.054 88.008 121.854 88.008C122.75 88.008 123.459 87.8053 123.982 87.4C124.515 86.984 124.867 86.4347 125.038 85.752H126.526C126.302 86.8293 125.784 87.672 124.974 88.28C124.174 88.888 123.134 89.192 121.854 89.192ZM130.816 89V78.904H127.472V77.8H135.504V78.904H132.16V89H130.816ZM140.447 89.192C139.626 89.192 138.911 89.0427 138.303 88.744C137.695 88.4453 137.226 88.0293 136.895 87.496C136.565 86.9627 136.399 86.344 136.399 85.64L137.807 85.64C137.807 86.0773 137.909 86.4827 138.111 86.856C138.314 87.2187 138.607 87.512 138.991 87.736C139.386 87.9493 139.871 88.056 140.447 88.056C141.205 88.056 141.791 87.8747 142.207 87.512C142.623 87.1493 142.831 86.696 142.831 86.152C142.831 85.704 142.735 85.3467 142.543 85.08C142.351 84.8027 142.09 84.5787 141.759 84.408C141.439 84.2373 141.066 84.088 140.639 83.96C140.223 83.832 139.786 83.688 139.327 83.528C138.463 83.2293 137.823 82.8613 137.407 82.424C136.991 81.976 136.783 81.3947 136.783 80.68C136.773 80.0827 136.911 79.5547 137.199 79.096C137.487 78.6267 137.893 78.264 138.415 78.008C138.949 77.7413 139.578 77.608 140.303 77.608C141.018 77.608 141.637 77.7413 142.159 78.008C142.693 78.2747 143.103 78.6427 143.391 79.112C143.69 79.5813 143.845 80.1147 143.855 80.712H142.447C142.447 80.4027 142.367 80.0987 142.207 79.8C142.047 79.4907 141.802 79.24 141.471 79.048C141.151 78.856 140.746 78.76 140.255 78.76C139.647 78.7493 139.146 78.904 138.751 79.224C138.367 79.544 138.175 79.9867 138.175 80.552C138.175 81.032 138.309 81.4 138.575 81.656C138.853 81.912 139.237 82.1253 139.727 82.296C140.218 82.456 140.783 82.6427 141.423 82.856C141.957 83.048 142.437 83.272 142.863 83.528C143.29 83.784 143.621 84.1147 143.855 84.52C144.101 84.9253 144.223 85.4427 144.223 86.072C144.223 86.6053 144.085 87.112 143.807 87.592C143.53 88.0613 143.109 88.4453 142.543 88.744C141.989 89.0427 141.29 89.192 140.447 89.192Z" fill="white"/>
<path d="M85.5 107V121" stroke="white" stroke-width="1.2" stroke-linecap="round" stroke-linejoin="round"/>
<path d="M92.5 114L85.5 121L78.5 114" stroke="white" stroke-width="1.2" stroke-linecap="round" stroke-linejoin="round"/>
<path fill-rule="evenodd" clip-rule="evenodd" d="M81.807 5.01191C114.574 4.45485 144.752 23.4734 155.822 54.3428C168.039 88.4111 162.853 128.472 133.824 150.062C103.95 172.282 62.181 168.775 32.9139 145.759C6.6286 125.088 4.16937 88.3349 15.1468 56.7344C25.3542 27.3508 50.7272 5.5403 81.807 5.01191Z" stroke="white"/>
</svg>
