<svg width="410" height="114" viewBox="0 0 410 114" fill="none" xmlns="http://www.w3.org/2000/svg">
<path d="M47.583 72.1016C47.8434 72.0853 48.112 72.0934 48.3887 72.126C48.6816 72.1585 48.9095 72.2399 49.0723 72.3701C49.2513 72.5166 49.3001 72.7526 49.2188 73.0781C49.1048 73.4362 48.9665 73.6152 48.8037 73.6152C48.641 73.6315 48.4619 73.5827 48.2666 73.4688C48.0387 73.3385 47.7946 73.2572 47.5342 73.2246C40.5192 73.2409 33.8379 73.835 27.4902 75.0068C21.1589 76.195 15.7633 77.6191 11.3037 79.2793C6.84408 80.9557 3.92253 82.5345 2.53906 84.0156C2.42513 84.1296 2.21354 84.2028 1.9043 84.2354C1.61133 84.2679 1.31836 84.2516 1.02539 84.1865C0.732422 84.1377 0.537109 84.04 0.439453 83.8936C0.146484 83.3239 0.268555 82.8519 0.805664 82.4775C1.86361 81.6475 3.58073 80.7523 5.95703 79.792C6.38021 79.613 6.69759 79.4014 6.90918 79.1572C7.12077 78.9131 7.27539 78.6934 7.37305 78.498C11.1979 71.8411 16.1947 63.9066 22.3633 54.6943C27.4251 46.9795 31.8604 39.9564 35.6689 33.625C37.1338 31.1673 38.1673 29.1816 38.7695 27.668C39.388 26.138 39.7542 24.9906 39.8682 24.2256C39.9821 23.4443 40.0146 22.9316 39.9658 22.6875C39.9658 22.6387 39.9658 22.598 39.9658 22.5654C39.8682 22.5329 39.7868 22.4352 39.7217 22.2725C39.6729 22.1097 39.6973 21.8574 39.7949 21.5156C39.9089 21.1413 40.1286 20.8239 40.4541 20.5635C40.7959 20.3031 41.154 20.1729 41.5283 20.1729C42.3421 20.1729 42.8955 20.5146 43.1885 21.1982C43.3838 21.5726 43.3919 22.1829 43.2129 23.0293C43.0501 23.8757 42.5374 25.1777 41.6748 26.9355C40.8122 28.6771 39.445 31.0941 37.5732 34.1865C35.0667 38.2555 32.0964 42.764 28.6621 47.7119C26.9206 50.251 25.1872 52.8063 23.4619 55.3779C22.5993 56.68 21.7367 57.9821 20.874 59.2842C15.9912 66.4945 11.9303 72.7933 8.69141 78.1807C8.54492 78.4248 8.49609 78.5794 8.54492 78.6445C8.59375 78.7259 8.69141 78.7503 8.83789 78.7178C8.98438 78.6852 9.139 78.6445 9.30176 78.5957C9.30176 78.5957 9.3099 78.5876 9.32617 78.5713C13.444 77.1878 18.7256 75.902 25.1709 74.7139C31.6162 73.542 39.0869 72.6712 47.583 72.1016ZM62.5596 55.915C62.641 55.8662 62.7142 55.8581 62.7793 55.8906C62.8607 55.9069 62.9014 55.9476 62.9014 56.0127C62.9176 56.0778 62.8607 56.151 62.7305 56.2324C60.7611 57.502 58.4743 58.6006 55.8701 59.5283C53.2822 60.4398 50.8896 60.8955 48.6924 60.8955C48.3994 60.8955 48.1146 60.8955 47.8379 60.8955C47.5775 60.8955 47.3822 60.9443 47.252 61.042C47.1217 61.1234 47.0241 61.221 46.959 61.335C46.959 61.3512 46.9508 61.3594 46.9346 61.3594C46.9346 61.3757 46.9264 61.3838 46.9102 61.3838C46.9102 61.4001 46.9102 61.4082 46.9102 61.4082C44.3548 64.8913 41.9785 66.8444 39.7812 67.2676C39.6673 67.2839 39.5452 67.292 39.415 67.292C38.6989 67.292 38.1943 67.0153 37.9014 66.4619C37.4456 65.5016 37.8932 64.0612 39.2441 62.1406C39.765 61.4245 40.3916 60.6514 41.124 59.8213C41.3193 59.6097 41.5309 59.4551 41.7588 59.3574C41.8564 59.3086 41.9053 59.2598 41.9053 59.2109C41.9215 59.1621 41.9134 59.1214 41.8809 59.0889C40.9368 57.8682 41.1159 56.387 42.418 54.6455C43.3457 53.4736 44.5013 52.554 45.8848 51.8867C47.2845 51.2031 48.4808 51.0729 49.4736 51.4961C49.9456 51.7077 50.2793 52.1146 50.4746 52.7168C50.6699 53.3027 50.5885 54.1654 50.2305 55.3047C49.8887 56.444 49.14 57.9414 47.9844 59.7969C47.9193 59.9108 47.8786 60.0003 47.8623 60.0654C47.8623 60.1143 47.8704 60.1549 47.8867 60.1875C47.9193 60.2038 47.9681 60.2119 48.0332 60.2119C48.2611 60.2282 48.4971 60.2363 48.7412 60.2363C50.792 60.2363 52.737 59.9678 54.5762 59.4307C56.4316 58.8936 58.0511 58.2913 59.4346 57.624C60.818 56.9567 61.8597 56.387 62.5596 55.915ZM43.5898 57.2334C43.5898 57.2334 43.5898 57.2415 43.5898 57.2578C43.5736 57.2741 43.5654 57.2904 43.5654 57.3066C43.5654 57.3229 43.5654 57.3392 43.5654 57.3555C43.5003 57.5996 43.4922 57.8844 43.541 58.21C43.5898 58.5192 43.7852 58.8285 44.127 59.1377C44.485 59.4469 45.0628 59.7074 45.8604 59.9189C45.8766 59.9189 45.8848 59.9189 45.8848 59.9189C45.9173 59.9352 45.958 59.9434 46.0068 59.9434C46.0394 59.9596 46.0801 59.9678 46.1289 59.9678C46.1289 59.9678 46.137 59.9678 46.1533 59.9678C46.1696 59.984 46.194 59.9922 46.2266 59.9922C46.2428 59.9922 46.2673 60.0003 46.2998 60.0166C46.2998 60.0166 46.3079 60.0166 46.3242 60.0166C46.5358 60.0492 46.6904 60.0247 46.7881 59.9434C46.8857 59.862 46.9671 59.7643 47.0322 59.6504C47.8623 58.2181 48.375 57.0462 48.5703 56.1348C48.7656 55.2233 48.7656 54.5479 48.5703 54.1084C48.3913 53.6527 48.1471 53.4085 47.8379 53.376C47.3333 53.3271 46.7474 53.5469 46.0801 54.0352C45.4128 54.5072 44.8187 55.085 44.2979 55.7686C43.9723 56.1755 43.7363 56.6637 43.5898 57.2334ZM39.4639 66.2422C40.4567 66.4863 41.5553 66.0713 42.7598 64.9971C43.9642 63.9066 45.0547 62.637 46.0312 61.1885C46.1615 61.0257 46.2021 60.9199 46.1533 60.8711C46.1045 60.8223 46.015 60.7897 45.8848 60.7734C45.1686 60.7083 44.5339 60.5944 43.9805 60.4316C43.9642 60.4316 43.9561 60.4316 43.9561 60.4316C43.9561 60.4316 43.9479 60.4316 43.9316 60.4316C43.8503 60.4154 43.7933 60.4235 43.7607 60.4561C43.7445 60.4723 43.7282 60.5049 43.7119 60.5537C43.6794 60.6839 43.598 60.8223 43.4678 60.9688C43.2399 61.1966 42.9469 61.4408 42.5889 61.7012C42.5726 61.7012 42.5645 61.7012 42.5645 61.7012C42.418 61.8151 42.2633 61.929 42.1006 62.043C42.068 62.0592 42.0355 62.0837 42.0029 62.1162C41.889 62.2139 41.7669 62.3197 41.6367 62.4336C41.2786 62.7266 40.888 63.0928 40.4648 63.5322C40.0254 63.9717 39.6836 64.4193 39.4395 64.875C39.179 65.3307 39.1302 65.7214 39.293 66.0469C39.3418 66.112 39.3988 66.1771 39.4639 66.2422ZM93.6738 55.9395C93.7389 55.8743 93.7959 55.8499 93.8447 55.8662C93.9098 55.8662 93.9424 55.8988 93.9424 55.9639C93.9424 56.0127 93.9017 56.0778 93.8203 56.1592C88.9701 60.1794 84.8441 63.1009 81.4424 64.9238C78.057 66.7467 75.5016 67.235 73.7764 66.3887C72.6533 65.7865 71.9941 64.7367 71.7988 63.2393C71.6198 61.7419 71.929 59.9271 72.7266 57.7949C72.873 57.4206 73.0358 57.0462 73.2148 56.6719C73.5241 56.0371 73.7438 55.4512 73.874 54.9141C73.9066 54.7188 73.8659 54.613 73.752 54.5967C73.6543 54.5641 73.5241 54.5885 73.3613 54.6699C73.1986 54.735 73.0439 54.8083 72.8975 54.8896C71.6768 55.736 70.1143 57.0299 68.21 58.7715C66.3057 60.513 64.5234 62.1813 62.8633 63.7764C61.2194 65.3551 60.1452 66.348 59.6406 66.7549C59.2174 67.113 58.7861 67.3815 58.3467 67.5605C57.9072 67.7233 57.598 67.7314 57.4189 67.585C57.2236 67.4222 57.2806 67.0234 57.5898 66.3887C57.6224 66.3236 57.9642 65.7376 58.6152 64.6309C59.25 63.5078 60.0557 62.1569 61.0322 60.5781C62.0088 58.9831 63.0098 57.4368 64.0352 55.9395C64.2793 55.5977 64.5641 55.3942 64.8896 55.3291C65.2314 55.2477 65.5651 55.2803 65.8906 55.4268C66.2161 55.557 66.4115 55.7523 66.4766 56.0127C66.5579 56.2568 66.4603 56.6149 66.1836 57.0869C65.8743 57.5426 65.1826 58.3971 64.1084 59.6504C62.8063 61.1803 61.4961 62.8079 60.1777 64.5332C60.0475 64.7285 59.9336 64.9157 59.8359 65.0947C59.722 65.2575 59.6569 65.3877 59.6406 65.4854C59.6081 65.583 59.6569 65.6074 59.7871 65.5586C59.9173 65.4935 60.1533 65.3145 60.4951 65.0215C61.5042 64.11 62.7412 62.9463 64.2061 61.5303C65.736 60.0654 67.2985 58.6006 68.8936 57.1357C70.5049 55.6546 71.9372 54.4421 73.1904 53.498C74.4437 52.5378 75.3226 52.1146 75.8271 52.2285C76.6247 52.4564 76.9583 52.9772 76.8281 53.791C76.6979 54.6048 76.1283 56.0046 75.1191 57.9902C74.582 59.1133 74.1833 60.2607 73.9229 61.4326C73.6787 62.5882 73.6299 63.5892 73.7764 64.4355C73.9391 65.2656 74.3623 65.7539 75.0459 65.9004C76.641 66.112 78.4313 65.762 80.417 64.8506C82.4189 63.9391 84.4697 62.7347 86.5693 61.2373C88.6852 59.7399 90.7279 58.2181 92.6973 56.6719C93.0228 56.4277 93.3483 56.1836 93.6738 55.9395ZM131.111 56.3545C126.717 58.6169 122.404 60.985 118.172 63.459C117.26 63.9961 116.634 64.46 116.292 64.8506C115.95 65.2412 115.739 65.5993 115.657 65.9248C115.641 65.9736 115.625 66.0306 115.608 66.0957C115.592 66.1445 115.576 66.1852 115.56 66.2178C115.543 66.2829 115.527 66.348 115.511 66.4131C115.511 66.4131 115.511 66.4212 115.511 66.4375C115.478 66.5026 115.454 66.5677 115.438 66.6328C115.405 66.7467 115.372 66.8607 115.34 66.9746C111.124 80.6139 105.184 91.7223 97.5176 100.3C91.0397 107.364 84.6432 111.563 78.3281 112.897C77.4004 113.06 76.5215 113.142 75.6914 113.142C73.8034 113.142 72.2653 112.71 71.0771 111.848C69.8727 110.985 69.124 109.748 68.8311 108.137C68.3916 105.712 69.3193 102.66 71.6143 98.9814C73.9092 95.3031 77.8724 91.0225 83.5039 86.1396C89.1191 81.2568 96.6875 75.7881 106.209 69.7334C106.6 69.5055 106.982 69.2695 107.356 69.0254C107.861 68.7161 108.357 68.415 108.846 68.1221C109.773 67.5687 110.701 67.0153 111.629 66.4619C112.247 66.0876 112.654 65.762 112.85 65.4854C113.061 65.2087 113.183 64.9808 113.216 64.8018C114.111 61.0908 114.445 58.3727 114.217 56.6475C113.989 54.9222 113.525 53.8724 112.825 53.498C111.995 53.0098 111.043 52.8714 109.969 53.083C108.911 53.2946 107.82 53.7015 106.697 54.3037C105.59 54.9059 104.565 55.557 103.621 56.2568C103.117 56.6312 102.49 57.2171 101.741 58.0146C100.993 58.8122 100.268 59.6423 99.5684 60.5049C98.3639 61.986 97.2572 63.2148 96.248 64.1914C95.2552 65.1517 94.2868 65.6481 93.3428 65.6807C93.3265 65.6807 93.3184 65.6807 93.3184 65.6807C93.3021 65.6807 93.2939 65.6807 93.2939 65.6807C92.3174 65.6644 91.6908 65.054 91.4141 63.8496C91.1211 62.1406 91.5524 60.4316 92.708 58.7227C93.8636 56.9974 95.3203 55.5651 97.0781 54.4258C99.8125 52.6842 102.148 52.2204 104.085 53.0342C104.297 53.1481 104.451 53.3027 104.549 53.498C104.598 53.5632 104.663 53.5876 104.744 53.5713C104.842 53.555 104.939 53.5143 105.037 53.4492C105.135 53.3841 105.224 53.3271 105.306 53.2783C106.803 52.1878 108.374 51.4229 110.018 50.9834C111.678 50.5439 113.281 50.7067 114.827 51.4717C117.382 52.904 117.92 56.7288 116.438 62.9463C116.39 63.223 116.398 63.3939 116.463 63.459C116.528 63.5241 116.634 63.5322 116.78 63.4834C116.927 63.4183 117.09 63.3369 117.269 63.2393C121.663 60.7816 126.261 58.332 131.062 55.8906C131.144 55.8418 131.209 55.8418 131.258 55.8906C131.323 55.9395 131.347 56.0127 131.331 56.1104C131.331 56.1917 131.258 56.2731 131.111 56.3545ZM101.131 56.8916H101.106C101.351 56.6475 101.497 56.4521 101.546 56.3057C101.611 56.1429 101.627 56.029 101.595 55.9639C101.562 55.8825 101.513 55.8255 101.448 55.793C100.96 55.5651 100.415 55.5326 99.8125 55.6953C99.2103 55.8418 98.6813 56.0452 98.2256 56.3057C98.0628 56.387 97.9163 56.4684 97.7861 56.5498C97.6559 56.5986 97.5176 56.6719 97.3711 56.7695C96.5085 57.2741 95.6458 58.0635 94.7832 59.1377C93.9206 60.1956 93.3346 61.2373 93.0254 62.2627C92.6999 63.2718 92.9277 63.9391 93.709 64.2646C94.5228 64.1995 95.4261 63.6136 96.4189 62.5068C97.4118 61.4001 98.2337 60.3991 98.8848 59.5039C99.0475 59.276 99.1859 59.097 99.2998 58.9668C99.7067 58.4297 100.317 57.738 101.131 56.8916ZM112.435 67.6094C112.5 67.3652 112.516 67.1943 112.483 67.0967C112.451 66.999 112.394 66.9583 112.312 66.9746C112.231 66.9746 112.125 67.0072 111.995 67.0723C110.547 67.9512 109.163 68.7975 107.845 69.6113C107.812 69.6439 107.78 69.6683 107.747 69.6846C101.155 73.8024 95.1006 78.0586 89.583 82.4531C84.0654 86.8477 79.679 90.8678 76.4238 94.5137C71.6387 99.9661 69.71 104.532 70.6377 108.21C70.9632 109.545 71.8014 110.513 73.1523 111.115C74.5033 111.717 76.1634 111.848 78.1328 111.506C80.0697 111.18 82.4785 110.196 85.3594 108.552C88.224 106.908 91.292 104.401 94.5635 101.032C97.835 97.6794 101.025 93.2604 104.134 87.7754C107.243 82.3066 110.009 75.5846 112.435 67.6094ZM153.559 55.915C153.607 55.9476 153.616 56.0046 153.583 56.0859C153.55 56.1673 153.477 56.2487 153.363 56.3301C153.347 56.3301 153.339 56.3301 153.339 56.3301C153.339 56.3301 153.339 56.3382 153.339 56.3545C149.156 58.9749 145.185 61.0664 141.425 62.6289C137.665 64.1914 134.776 64.8913 132.758 64.7285C131.439 64.6471 130.512 64.1995 129.975 63.3857C129.372 62.1813 129.519 60.6758 130.414 58.8691C130.674 58.3646 130.959 57.8926 131.269 57.4531C131.513 57.0951 131.757 56.7533 132.001 56.4277C133.124 55.1419 134.052 54.2061 134.784 53.6201C134.849 53.555 134.906 53.498 134.955 53.4492C134.971 53.4492 134.979 53.4411 134.979 53.4248C135.484 53.0179 135.972 52.6354 136.444 52.2773C139.813 49.8359 142.279 48.9082 143.842 49.4941C144.216 49.6569 144.501 49.9092 144.696 50.251C144.892 50.5765 144.916 50.9671 144.77 51.4229C144.558 51.9925 144.102 52.5133 143.402 52.9854C142.719 53.4574 141.905 53.8724 140.961 54.2305C138.959 54.9792 137.079 55.5407 135.321 55.915C135.11 55.9476 134.8 56.0778 134.394 56.3057C134.003 56.5173 133.588 56.8428 133.148 57.2822C133.132 57.2985 133.124 57.3066 133.124 57.3066C133.091 57.3555 133.051 57.4043 133.002 57.4531C132.042 58.5273 131.415 59.6992 131.122 60.9688C131.122 61.8639 131.456 62.5312 132.123 62.9707C132.79 63.3939 133.588 63.6055 134.516 63.6055C136.339 63.6055 138.886 62.93 142.157 61.5791C145.429 60.2282 149.148 58.3402 153.314 55.915C153.428 55.8499 153.51 55.8499 153.559 55.915ZM135.541 55.1338C135.411 55.2314 135.329 55.3128 135.297 55.3779C135.264 55.443 135.338 55.4593 135.517 55.4268C136.412 55.2152 137.462 54.9059 138.666 54.499C139.545 54.2061 140.269 53.8968 140.839 53.5713C141.425 53.2295 141.669 52.9202 141.571 52.6436C141.571 52.6436 141.571 52.6354 141.571 52.6191C141.571 52.6191 141.563 52.611 141.547 52.5947C141.547 52.5785 141.547 52.5703 141.547 52.5703C141.417 52.4238 141.189 52.3587 140.863 52.375C140.603 52.4076 140.294 52.4808 139.936 52.5947C139.919 52.5947 139.911 52.5947 139.911 52.5947C139.911 52.611 139.911 52.6191 139.911 52.6191C139.862 52.6191 139.813 52.6354 139.765 52.668C139.765 52.668 139.757 52.668 139.74 52.668C139.74 52.668 139.732 52.668 139.716 52.668C139.276 52.8307 138.78 53.0749 138.227 53.4004C137.364 53.8561 136.469 54.4339 135.541 55.1338ZM265.386 22.5654C265.581 22.9886 265.63 23.5501 265.532 24.25C265.451 24.9499 265.044 25.7881 264.312 26.7646C264.035 27.1064 263.709 27.3343 263.335 27.4482C262.961 27.5622 262.627 27.5378 262.334 27.375C261.715 27.0332 261.65 26.5286 262.139 25.8613C262.448 25.487 262.725 25.2103 262.969 25.0312C263.148 24.901 263.294 24.7708 263.408 24.6406C263.522 24.5104 263.587 24.3395 263.604 24.1279C263.685 23.6234 263.107 23.0863 261.87 22.5166C260.649 21.9469 258.477 21.4912 255.352 21.1494C252.227 20.8076 247.873 20.7262 242.29 20.9053C233.159 21.2145 220.236 22.2806 203.521 24.1035C203.407 24.1361 203.276 24.2093 203.13 24.3232C202.983 24.4372 202.804 24.6162 202.593 24.8604C202.593 24.8604 202.593 24.8685 202.593 24.8848C201.307 26.4798 199.932 28.1888 198.467 30.0117C196.742 32.1276 194.894 34.4144 192.925 36.8721C187.782 44.1312 183.289 50.5358 179.448 56.0859C175.623 61.6361 172.498 66.4131 170.073 70.417C167.567 74.5837 165.752 77.847 164.629 80.207C163.522 82.5671 162.847 84.2923 162.603 85.3828C162.358 86.4896 162.285 87.2383 162.383 87.6289C162.383 87.7591 162.407 87.9137 162.456 88.0928C162.521 88.2718 162.627 88.4102 162.773 88.5078C162.936 88.6055 163.18 88.6055 163.506 88.5078C164.548 88.166 164.889 88.4346 164.531 89.3135C164.385 89.7041 164.149 90.0296 163.823 90.29C163.514 90.5505 163.172 90.6807 162.798 90.6807C162.244 90.6807 161.813 90.5505 161.504 90.29C161.211 90.0459 160.983 89.6227 160.82 89.0205C160.544 88.1742 160.666 86.8232 161.187 84.9678C161.724 83.1123 162.887 80.4512 164.678 76.9844C166.484 73.5176 169.146 68.9684 172.661 63.3369C176.177 57.6891 180.783 50.666 186.479 42.2676C186.561 42.1374 186.585 42.0723 186.553 42.0723C186.52 42.056 186.463 42.0885 186.382 42.1699C180.767 47.4596 175.29 52.5378 169.951 57.4043C164.629 62.2708 161.064 65.4772 159.258 67.0234C159.111 67.1536 159.006 67.2594 158.94 67.3408C158.892 67.4222 158.867 67.4954 158.867 67.5605C158.883 67.6094 158.908 67.6582 158.94 67.707C158.94 67.7233 158.949 67.7314 158.965 67.7314C158.965 67.7314 158.965 67.7396 158.965 67.7559C158.981 67.7559 158.989 67.7559 158.989 67.7559C159.494 68.3255 159.697 69.0661 159.6 69.9775C159.486 70.9378 158.989 71.9632 158.11 73.0537C158.062 73.1188 158.013 73.1758 157.964 73.2246C157.882 73.306 157.801 73.3874 157.72 73.4688C156.857 74.3314 156.027 74.901 155.229 75.1777C154.432 75.4544 153.748 75.5439 153.179 75.4463C153.114 75.4463 153.057 75.4382 153.008 75.4219C152.666 75.3405 152.406 75.2184 152.227 75.0557C152.048 74.8929 151.925 74.722 151.86 74.543C151.779 74.3802 151.73 74.2419 151.714 74.1279C151.714 74.1279 151.714 74.1198 151.714 74.1035C151.714 74.1035 151.714 74.0954 151.714 74.0791C151.698 74.0791 151.689 74.071 151.689 74.0547C151.641 73.5664 151.73 73.0863 151.958 72.6143C151.958 72.598 151.958 72.5898 151.958 72.5898C152.056 72.3783 152.17 72.1748 152.3 71.9795C152.593 71.54 152.91 71.1413 153.252 70.7832C153.594 70.4414 153.87 70.181 154.082 70.002C154.098 69.9857 154.115 69.9694 154.131 69.9531C154.163 69.9368 154.188 69.9206 154.204 69.9043C154.692 69.4648 155.075 69.123 155.352 68.8789C155.4 68.8464 155.441 68.8219 155.474 68.8057C155.653 68.6592 155.84 68.5046 156.035 68.3418C156.247 68.179 156.385 68.0407 156.45 67.9268C156.532 67.7965 156.564 67.6908 156.548 67.6094C156.532 67.528 156.499 67.4548 156.45 67.3896C156.353 67.2594 156.247 67.1211 156.133 66.9746C155.807 66.5677 155.441 66.0713 155.034 65.4854C154.774 65.0947 154.489 64.6797 154.18 64.2402C152.699 62.043 152.471 59.9027 153.496 57.8193C154.766 55.2477 157.842 53.0667 162.725 51.2764C163.132 51.1462 163.481 51.1543 163.774 51.3008C164.067 51.431 164.238 51.6751 164.287 52.0332C164.336 52.4076 164.287 52.8307 164.141 53.3027C163.994 53.7747 163.726 54.1003 163.335 54.2793C161.398 54.9629 159.738 55.6383 158.354 56.3057C156.987 56.973 156.043 57.6891 155.522 58.4541C154.985 59.3493 154.774 60.2282 154.888 61.0908C155.002 61.9372 155.238 62.6777 155.596 63.3125C155.954 63.9473 156.239 64.3867 156.45 64.6309C156.499 64.696 156.532 64.7367 156.548 64.7529C156.971 65.3551 157.362 65.8678 157.72 66.291C158.013 66.6165 158.33 66.6816 158.672 66.4863C160.479 65.2168 164.222 62.0023 169.902 56.8428C175.583 51.667 181.385 46.2389 187.31 40.5586C187.472 40.3958 187.668 40.1761 187.896 39.8994C188.14 39.6227 188.368 39.346 188.579 39.0693C188.807 38.7926 188.97 38.5892 189.067 38.459C191.688 34.6178 194.552 30.4674 197.661 26.0078C198.084 25.4382 198.288 25.0801 198.271 24.9336C198.255 24.7708 198.044 24.7139 197.637 24.7627C196.611 24.8929 195.562 25.015 194.487 25.1289C181.841 26.6589 173.141 27.3343 168.389 27.1553C165.329 27.0251 163.221 26.7646 162.065 26.374C160.926 25.9671 160.348 25.4137 160.332 24.7139C160.283 23.9001 160.544 23.1432 161.113 22.4434C161.699 21.7272 162.367 21.1087 163.115 20.5879C163.88 20.0508 164.507 19.6357 164.995 19.3428C165.369 19.1312 165.728 19.0579 166.069 19.123C166.411 19.1719 166.655 19.3509 166.802 19.6602C166.932 19.9857 166.916 20.3275 166.753 20.6855C166.606 21.0436 166.346 21.3366 165.972 21.5645C165.89 21.6133 165.809 21.6621 165.728 21.7109C165.549 21.8086 165.28 22.012 164.922 22.3213C164.564 22.6143 164.303 22.9723 164.141 23.3955C163.994 23.8187 164.124 24.25 164.531 24.6895C164.808 24.9824 165.296 25.2347 165.996 25.4463C166.696 25.6579 167.689 25.7881 168.975 25.8369C174.541 25.9671 183.086 25.3486 194.609 23.9814C195.83 23.8512 197.026 23.7129 198.198 23.5664C198.573 23.5501 198.931 23.4525 199.272 23.2734C199.614 23.0781 200.013 22.6631 200.469 22.0283C203.724 17.3734 206.898 12.93 209.99 8.69824C213.099 4.4502 215.19 1.82975 216.265 0.836914C216.704 0.495117 217.111 0.324219 217.485 0.324219C217.86 0.307943 218.153 0.397461 218.364 0.592773C218.69 0.869466 218.739 1.34147 218.511 2.00879C218.478 2.23665 218.389 2.44824 218.242 2.64355C217.9 3.3597 217.274 4.43392 216.362 5.86621C214.816 8.35645 212.879 11.2454 210.552 14.5332C208.94 16.8118 206.963 19.416 204.619 22.3457C204.619 22.3457 204.611 22.3457 204.595 22.3457C204.595 22.362 204.595 22.3701 204.595 22.3701C204.595 22.3701 204.587 22.3783 204.57 22.3945C204.57 22.3945 204.57 22.4027 204.57 22.4189C204.554 22.4189 204.546 22.4271 204.546 22.4434C204.513 22.4922 204.481 22.541 204.448 22.5898C204.416 22.6387 204.399 22.6875 204.399 22.7363C204.416 22.7852 204.473 22.8096 204.57 22.8096C204.57 22.8096 204.578 22.8096 204.595 22.8096C204.595 22.8096 204.603 22.8096 204.619 22.8096C204.701 22.8258 204.798 22.8258 204.912 22.8096C204.928 22.8096 204.937 22.8096 204.937 22.8096C221.017 20.889 233.525 19.7497 242.461 19.3916C248.564 19.18 253.228 19.2044 256.45 19.4648C259.673 19.709 261.911 20.1159 263.164 20.6855C264.434 21.2389 265.174 21.8656 265.386 22.5654ZM153.765 74.0303C154.318 74.0791 154.888 73.8512 155.474 73.3467C156.06 72.8584 156.548 72.2887 156.938 71.6377C157.345 70.9867 157.549 70.4333 157.549 69.9775C157.549 69.5869 157.484 69.2288 157.354 68.9033C157.272 68.7406 157.183 68.6673 157.085 68.6836C156.987 68.6999 156.89 68.7487 156.792 68.8301C156.125 69.3509 155.588 69.7985 155.181 70.1729C155.164 70.1891 155.148 70.2054 155.132 70.2217C155.116 70.238 155.099 70.2542 155.083 70.2705C155.067 70.2705 155.05 70.2786 155.034 70.2949C155.018 70.3112 155.002 70.3356 154.985 70.3682C154.937 70.4007 154.896 70.4414 154.863 70.4902C154.831 70.5228 154.798 70.5472 154.766 70.5635C154.766 70.5798 154.766 70.5879 154.766 70.5879C154.749 70.5879 154.741 70.596 154.741 70.6123C154.302 71.0192 153.887 71.5889 153.496 72.3213C153.268 72.7445 153.154 73.1188 153.154 73.4443C153.154 73.7699 153.358 73.9652 153.765 74.0303ZM202.202 24.4941C202.251 24.429 202.267 24.3721 202.251 24.3232C202.251 24.2744 202.194 24.2581 202.08 24.2744C201.95 24.2907 201.844 24.3395 201.763 24.4209C201.681 24.486 201.608 24.5674 201.543 24.665C200.257 26.488 199.004 28.262 197.783 29.9873C197.653 30.1663 197.604 30.264 197.637 30.2803C197.669 30.2803 197.734 30.2233 197.832 30.1094C199.329 28.2376 200.786 26.3659 202.202 24.4941ZM203.594 22.5898C207.63 17.1211 210.828 12.458 213.188 8.60059C210.991 11.4163 207.59 16.0794 202.983 22.5898C202.869 22.7526 202.804 22.8665 202.788 22.9316C202.788 22.9967 202.845 23.0293 202.959 23.0293C202.975 23.0293 202.992 23.0293 203.008 23.0293C203.04 23.013 203.073 23.0049 203.105 23.0049C203.285 22.9561 203.447 22.8177 203.594 22.5898ZM297.316 22.6875C297.528 23.1107 297.585 23.6722 297.487 24.3721C297.406 25.0719 296.999 25.9183 296.267 26.9111C295.99 27.2529 295.664 27.4808 295.29 27.5947C294.916 27.7087 294.574 27.6842 294.265 27.5215C293.662 27.1634 293.605 26.6507 294.094 25.9834C294.387 25.6253 294.663 25.3568 294.924 25.1777C295.103 25.0312 295.241 24.8929 295.339 24.7627C295.453 24.6325 295.526 24.4616 295.559 24.25C295.64 23.7617 295.062 23.2327 293.825 22.6631C292.604 22.0934 290.432 21.6377 287.307 21.2959C284.182 20.9378 279.82 20.8483 274.221 21.0273C268.215 21.2389 260.744 21.7516 251.809 22.5654C251.337 22.6305 250.987 22.7363 250.759 22.8828C250.547 23.013 250.393 23.1514 250.295 23.2979C245.64 29.0433 239.634 37.7428 232.277 49.3965C232.115 49.6569 231.651 50.3486 230.886 51.4717C230.137 52.5947 229.299 53.848 228.371 55.2314C227.443 56.6312 226.63 57.8519 225.93 58.8936C225.23 59.9189 224.855 60.4642 224.807 60.5293C224.514 60.9525 224.229 61.3675 223.952 61.7744C222.406 63.9717 221.104 65.8516 220.046 67.4141C219.932 67.5931 219.818 67.7721 219.704 67.9512C219.606 68.1302 219.533 68.2686 219.484 68.3662C219.452 68.4801 219.484 68.5127 219.582 68.4639C219.68 68.4313 219.867 68.2767 220.144 68C220.567 67.5605 221.039 67.0804 221.56 66.5596C222.748 65.3063 224.05 64.0042 225.466 62.6533C226.882 61.2861 228.282 60.1305 229.665 59.1865C231.049 58.2262 232.277 57.7298 233.352 57.6973C233.677 57.6973 233.938 57.8031 234.133 58.0146C234.328 58.21 234.41 58.4704 234.377 58.7959C234.344 59.3005 234.353 60.1061 234.401 61.2129C234.45 62.3034 234.597 63.3369 234.841 64.3135C235.101 65.2738 235.524 65.819 236.11 65.9492C237.054 66.1283 238.731 65.5179 241.14 64.1182C243.565 62.7184 246.796 60.0166 250.832 56.0127C250.93 55.915 251.027 55.8662 251.125 55.8662C251.223 55.8662 251.271 55.915 251.271 56.0127C251.288 56.1104 251.206 56.2568 251.027 56.4521C247.43 60.1305 244.257 62.9056 241.506 64.7773C238.755 66.6328 236.493 67.3734 234.719 66.999C234.003 66.8037 233.457 66.3805 233.083 65.7295C232.709 65.0785 232.44 64.346 232.277 63.5322C232.131 62.7021 232.033 61.9453 231.984 61.2617C231.919 60.4316 231.822 59.9352 231.691 59.7725C231.089 59.4795 230.137 59.8132 228.835 60.7734C227.549 61.7174 226.141 62.9463 224.611 64.46C223.081 65.9736 221.665 67.4141 220.363 68.7812C219.501 69.709 218.776 70.4658 218.19 71.0518C217.604 71.6377 217.23 71.9469 217.067 71.9795C217.051 71.9795 217.027 71.9876 216.994 72.0039C216.913 72.0039 216.815 71.9958 216.701 71.9795C216.604 71.9795 216.514 71.9469 216.433 71.8818C216.368 71.8167 216.335 71.7028 216.335 71.54C216.351 71.3936 216.441 71.1738 216.604 70.8809C216.652 70.7832 217.1 70.0996 217.946 68.8301C219.411 66.6003 221.389 63.5729 223.879 59.748C226.369 55.9069 228.64 52.3424 230.69 49.0547C237.396 38.4427 243.223 29.9385 248.171 23.542C248.35 23.2979 248.374 23.1351 248.244 23.0537C248.13 22.9723 247.951 22.9398 247.707 22.9561C243.915 23.3304 239.838 23.7617 235.476 24.25C235.345 24.2826 235.207 24.3558 235.061 24.4697C234.914 24.5674 234.743 24.7383 234.548 24.9824C234.548 24.9987 234.548 25.0068 234.548 25.0068C233.262 26.5856 231.895 28.2783 230.446 30.085C228.721 32.2171 226.866 34.5202 224.88 36.9941C219.72 44.2695 215.22 50.6823 211.379 56.2324C207.554 61.7826 204.429 66.5514 202.004 70.5391C199.497 74.7057 197.691 77.9691 196.584 80.3291C195.477 82.6891 194.802 84.4144 194.558 85.5049C194.297 86.6117 194.216 87.3604 194.313 87.751C194.33 87.8812 194.362 88.0358 194.411 88.2148C194.46 88.3939 194.566 88.5322 194.729 88.6299C194.891 88.7438 195.127 88.752 195.437 88.6543C196.478 88.2962 196.828 88.5566 196.486 89.4355C196.34 89.8262 196.112 90.1517 195.803 90.4121C195.477 90.6725 195.127 90.8027 194.753 90.8027C194.183 90.8027 193.752 90.6725 193.459 90.4121C193.15 90.168 192.914 89.7448 192.751 89.1426C192.425 88.1986 192.653 86.5547 193.435 84.2109C194.2 81.8835 195.86 78.4167 198.415 73.8105C200.97 69.2207 204.763 63.0602 209.792 55.3291C214.821 47.598 221.429 37.8649 229.616 26.1299C230.023 25.5602 230.218 25.2021 230.202 25.0557C230.186 24.8929 229.974 24.8441 229.567 24.9092C228.542 25.0231 227.5 25.137 226.442 25.251C213.78 26.7809 205.072 27.4564 200.319 27.2773C197.259 27.1471 195.16 26.8867 194.021 26.4961C192.881 26.0892 192.303 25.5358 192.287 24.8359C192.222 24.0384 192.482 23.2816 193.068 22.5654C193.638 21.8493 194.305 21.2308 195.07 20.71C195.819 20.1729 196.438 19.766 196.926 19.4893C197.3 19.2614 197.658 19.18 198 19.2451C198.342 19.2939 198.586 19.473 198.732 19.7822C198.863 20.1077 198.854 20.4495 198.708 20.8076C198.545 21.1657 198.277 21.4587 197.902 21.6865C197.821 21.7354 197.74 21.7842 197.658 21.833C197.479 21.9307 197.219 22.1341 196.877 22.4434C196.519 22.7363 196.267 23.0944 196.12 23.5176C195.957 23.9408 196.079 24.3802 196.486 24.8359C196.747 25.1126 197.235 25.3649 197.951 25.5928C198.651 25.8044 199.636 25.9346 200.905 25.9834C206.488 26.0973 215.041 25.4788 226.564 24.1279C227.769 23.9814 228.957 23.8431 230.129 23.7129C230.52 23.6803 230.878 23.5745 231.203 23.3955C231.545 23.2002 231.944 22.7852 232.399 22.1504C235.655 17.4954 238.828 13.0521 241.921 8.82031C245.03 4.57227 247.121 1.95182 248.195 0.958984C248.651 0.617188 249.066 0.446289 249.44 0.446289C249.815 0.430013 250.1 0.527669 250.295 0.739258C250.637 1.01595 250.694 1.47982 250.466 2.13086C250.433 2.375 250.344 2.59473 250.197 2.79004C249.839 3.48991 249.213 4.55599 248.317 5.98828C246.771 8.47852 244.834 11.3675 242.507 14.6553C240.879 16.9339 238.894 19.5462 236.55 22.4922C236.55 22.4922 236.542 22.4922 236.525 22.4922C236.525 22.5085 236.525 22.5166 236.525 22.5166C236.509 22.5329 236.501 22.541 236.501 22.541C236.501 22.541 236.493 22.5492 236.477 22.5654C236.444 22.6143 236.411 22.6712 236.379 22.7363C236.346 22.7852 236.338 22.834 236.354 22.8828C236.371 22.9154 236.428 22.9398 236.525 22.9561C236.525 22.9561 236.534 22.9561 236.55 22.9561C236.55 22.9561 236.558 22.9561 236.574 22.9561C236.639 22.9561 236.729 22.9479 236.843 22.9316C236.859 22.9316 236.867 22.9316 236.867 22.9316C236.867 22.9316 236.875 22.9316 236.892 22.9316C240.928 22.4596 244.704 22.0365 248.22 21.6621C248.887 21.5807 249.367 21.4587 249.66 21.2959C249.953 21.1331 250.157 20.9704 250.271 20.8076C250.287 20.7751 250.303 20.7507 250.319 20.7344C250.352 20.7018 250.376 20.6693 250.393 20.6367C253.55 16.6165 256.13 13.4346 258.132 11.0908C258.132 11.0745 258.14 11.0664 258.156 11.0664C258.514 10.6921 258.962 10.5212 259.499 10.5537C259.922 10.57 260.256 10.7165 260.5 10.9932C260.744 11.2699 260.76 11.6523 260.549 12.1406C260.484 12.2708 260.427 12.3848 260.378 12.4824C260.345 12.5312 260.321 12.5719 260.305 12.6045C260.256 12.7347 260.207 12.8324 260.158 12.8975C260.126 12.9463 260.093 12.987 260.061 13.0195C260.044 13.0358 260.02 13.0521 259.987 13.0684C259.971 13.0684 259.955 13.0602 259.938 13.0439C259.906 13.0439 259.865 13.0521 259.816 13.0684C259.768 13.0684 259.694 13.1009 259.597 13.166C257.937 14.5007 255.568 16.9827 252.492 20.6123C252.297 20.8402 252.232 21.0029 252.297 21.1006C252.378 21.182 252.541 21.2145 252.785 21.1982C261.33 20.3031 268.532 19.7415 274.392 19.5137C280.511 19.3021 285.183 19.3265 288.405 19.5869C291.628 19.8473 293.866 20.2542 295.119 20.8076C296.372 21.361 297.105 21.9876 297.316 22.6875ZM234.133 24.6162C234.182 24.5511 234.206 24.4941 234.206 24.4453C234.206 24.3965 234.149 24.3802 234.035 24.3965C233.889 24.4128 233.775 24.4616 233.693 24.543C233.612 24.6081 233.539 24.6895 233.474 24.7871C232.188 26.61 230.935 28.3923 229.714 30.1338C229.6 30.2965 229.551 30.3861 229.567 30.4023C229.6 30.4023 229.665 30.3454 229.763 30.2314C231.26 28.3597 232.717 26.488 234.133 24.6162ZM235.061 23.127C235.223 23.0781 235.386 22.9479 235.549 22.7363C239.569 17.2676 242.759 12.5964 245.119 8.72266C242.922 11.5384 239.52 16.2096 234.914 22.7363C234.8 22.8828 234.743 22.9886 234.743 23.0537C234.743 23.1188 234.8 23.1514 234.914 23.1514C234.914 23.1514 234.922 23.1514 234.938 23.1514C234.971 23.1514 235.012 23.1432 235.061 23.127ZM273.475 55.915C273.523 55.9476 273.532 56.0046 273.499 56.0859C273.466 56.1673 273.393 56.2487 273.279 56.3301C273.263 56.3301 273.255 56.3301 273.255 56.3301C273.255 56.3301 273.255 56.3382 273.255 56.3545C269.072 58.9749 265.101 61.0664 261.341 62.6289C257.581 64.1914 254.692 64.8913 252.674 64.7285C251.355 64.6471 250.428 64.1995 249.891 63.3857C249.288 62.1813 249.435 60.6758 250.33 58.8691C250.59 58.3646 250.875 57.8926 251.185 57.4531C251.429 57.0951 251.673 56.7533 251.917 56.4277C253.04 55.1419 253.968 54.2061 254.7 53.6201C254.765 53.555 254.822 53.498 254.871 53.4492C254.887 53.4492 254.896 53.4411 254.896 53.4248C255.4 53.0179 255.888 52.6354 256.36 52.2773C259.729 49.8359 262.195 48.9082 263.758 49.4941C264.132 49.6569 264.417 49.9092 264.612 50.251C264.808 50.5765 264.832 50.9671 264.686 51.4229C264.474 51.9925 264.018 52.5133 263.318 52.9854C262.635 53.4574 261.821 53.8724 260.877 54.2305C258.875 54.9792 256.995 55.5407 255.237 55.915C255.026 55.9476 254.716 56.0778 254.31 56.3057C253.919 56.5173 253.504 56.8428 253.064 57.2822C253.048 57.2985 253.04 57.3066 253.04 57.3066C253.007 57.3555 252.967 57.4043 252.918 57.4531C251.958 58.5273 251.331 59.6992 251.038 60.9688C251.038 61.8639 251.372 62.5312 252.039 62.9707C252.706 63.3939 253.504 63.6055 254.432 63.6055C256.255 63.6055 258.802 62.93 262.073 61.5791C265.345 60.2282 269.064 58.3402 273.23 55.915C273.344 55.8499 273.426 55.8499 273.475 55.915ZM255.457 55.1338C255.327 55.2314 255.245 55.3128 255.213 55.3779C255.18 55.443 255.254 55.4593 255.433 55.4268C256.328 55.2152 257.378 54.9059 258.582 54.499C259.461 54.2061 260.185 53.8968 260.755 53.5713C261.341 53.2295 261.585 52.9202 261.487 52.6436C261.487 52.6436 261.487 52.6354 261.487 52.6191C261.487 52.6191 261.479 52.611 261.463 52.5947C261.463 52.5785 261.463 52.5703 261.463 52.5703C261.333 52.4238 261.105 52.3587 260.779 52.375C260.519 52.4076 260.21 52.4808 259.852 52.5947C259.835 52.5947 259.827 52.5947 259.827 52.5947C259.827 52.611 259.827 52.6191 259.827 52.6191C259.778 52.6191 259.729 52.6354 259.681 52.668C259.681 52.668 259.673 52.668 259.656 52.668C259.656 52.668 259.648 52.668 259.632 52.668C259.192 52.8307 258.696 53.0749 258.143 53.4004C257.28 53.8561 256.385 54.4339 255.457 55.1338ZM304.369 55.9395C304.434 55.8743 304.491 55.8499 304.54 55.8662C304.605 55.8662 304.638 55.8988 304.638 55.9639C304.638 56.0127 304.597 56.0778 304.516 56.1592C299.665 60.1794 295.539 63.1009 292.138 64.9238C288.752 66.7467 286.197 67.235 284.472 66.3887C283.349 65.7865 282.689 64.7367 282.494 63.2393C282.315 61.7419 282.624 59.9271 283.422 57.7949C283.568 57.4206 283.731 57.0462 283.91 56.6719C284.219 56.0371 284.439 55.4512 284.569 54.9141C284.602 54.7188 284.561 54.613 284.447 54.5967C284.35 54.5641 284.219 54.5885 284.057 54.6699C283.894 54.735 283.739 54.8083 283.593 54.8896C282.372 55.736 280.81 57.0299 278.905 58.7715C277.001 60.513 275.219 62.1813 273.559 63.7764C271.915 65.3551 270.84 66.348 270.336 66.7549C269.913 67.113 269.481 67.3815 269.042 67.5605C268.603 67.7233 268.293 67.7314 268.114 67.585C267.919 67.4222 267.976 67.0234 268.285 66.3887C268.318 66.3236 268.66 65.7376 269.311 64.6309C269.945 63.5078 270.751 62.1569 271.728 60.5781C272.704 58.9831 273.705 57.4368 274.73 55.9395C274.975 55.5977 275.259 55.3942 275.585 55.3291C275.927 55.2477 276.26 55.2803 276.586 55.4268C276.911 55.557 277.107 55.7523 277.172 56.0127C277.253 56.2568 277.156 56.6149 276.879 57.0869C276.57 57.5426 275.878 58.3971 274.804 59.6504C273.502 61.1803 272.191 62.8079 270.873 64.5332C270.743 64.7285 270.629 64.9157 270.531 65.0947C270.417 65.2575 270.352 65.3877 270.336 65.4854C270.303 65.583 270.352 65.6074 270.482 65.5586C270.613 65.4935 270.849 65.3145 271.19 65.0215C272.2 64.11 273.437 62.9463 274.901 61.5303C276.431 60.0654 277.994 58.6006 279.589 57.1357C281.2 55.6546 282.632 54.4421 283.886 53.498C285.139 52.5378 286.018 52.1146 286.522 52.2285C287.32 52.4564 287.654 52.9772 287.523 53.791C287.393 54.6048 286.824 56.0046 285.814 57.9902C285.277 59.1133 284.879 60.2607 284.618 61.4326C284.374 62.5882 284.325 63.5892 284.472 64.4355C284.634 65.2656 285.058 65.7539 285.741 65.9004C287.336 66.112 289.127 65.762 291.112 64.8506C293.114 63.9391 295.165 62.7347 297.265 61.2373C299.381 59.7399 301.423 58.2181 303.393 56.6719C303.718 56.4277 304.044 56.1836 304.369 55.9395ZM347.579 55.9395C347.66 55.8743 347.742 55.8499 347.823 55.8662C347.921 55.8825 347.978 55.9313 347.994 56.0127C348.01 56.0941 347.945 56.1917 347.799 56.3057C341.158 62.2301 335.722 66.8607 331.49 70.1973C327.275 73.5339 323.995 75.8776 321.651 77.2285C319.308 78.5794 317.639 79.2223 316.646 79.1572C315.979 79.1572 315.466 79.0107 315.108 78.7178C313.172 77.2692 314.465 72.6143 318.99 64.7529C323.515 56.8916 330.921 45.6449 341.207 31.0127C341.272 30.915 341.337 30.8174 341.402 30.7197C341.581 30.4756 341.752 30.2314 341.915 29.9873C342.631 28.9294 343.323 27.9121 343.99 26.9355C346.367 23.3874 348.434 20.3682 350.191 17.8779C353.007 13.7601 354.789 10.9036 355.538 9.30859C355.473 9.21094 355.489 9.0319 355.587 8.77148C355.685 8.51107 355.864 8.25065 356.124 7.99023C356.384 7.71354 356.71 7.52637 357.101 7.42871C357.475 7.34733 357.809 7.36361 358.102 7.47754C358.411 7.59147 358.622 7.77865 358.736 8.03906C358.948 8.51107 358.785 9.21094 358.248 10.1387C357.711 11.0501 356.718 12.4906 355.27 14.46C354.391 15.6644 353.333 17.1536 352.096 18.9277C351.705 19.4811 350.769 20.7995 349.288 22.8828C347.905 24.8197 346.212 27.1878 344.21 29.9873C339.929 36.042 335.779 41.9665 331.759 47.7607C327.739 53.5387 324.85 57.8275 323.092 60.627C321.611 63.0521 320.398 65.1436 319.454 66.9014C318.494 68.6592 317.753 70.1322 317.232 71.3203C316.695 72.5085 316.329 73.4769 316.134 74.2256C315.922 74.9743 315.816 75.5439 315.816 75.9346C315.816 76.3415 315.865 76.6344 315.963 76.8135C316.061 76.9925 316.142 77.1064 316.207 77.1553C316.223 77.1553 316.231 77.1634 316.231 77.1797C317.078 77.8145 318.705 77.4971 321.114 76.2275C323.507 74.9743 326.298 73.1595 329.488 70.7832C332.695 68.4232 335.901 65.9085 339.107 63.2393C342.314 60.5537 345.138 58.1204 347.579 55.9395ZM352.937 52.1553C352.676 52.1227 352.562 52.0169 352.595 51.8379C352.627 51.6589 352.701 51.4473 352.814 51.2031C352.928 51.0078 353.01 50.8206 353.059 50.6416C353.173 50.2347 353.36 49.9092 353.62 49.665C353.897 49.4046 354.23 49.2744 354.621 49.2744C354.898 49.2744 355.142 49.2988 355.354 49.3477C355.565 49.3965 355.703 49.5267 355.769 49.7383C355.85 49.9499 355.817 50.2754 355.671 50.7148C355.41 51.3496 354.995 51.7646 354.426 51.96C353.856 52.1553 353.36 52.2204 352.937 52.1553ZM364.411 55.9395C364.59 55.8092 364.712 55.7686 364.777 55.8174C364.859 55.8662 364.875 55.9557 364.826 56.0859C364.777 56.1999 364.68 56.3138 364.533 56.4277C362.727 57.6647 360.725 59.0075 358.527 60.4561C356.33 61.9046 354.174 63.2637 352.058 64.5332C349.958 65.7865 348.143 66.7386 346.613 67.3896C345.067 68.0407 344.058 68.1709 343.586 67.7803C343.049 67.2106 342.943 66.4131 343.269 65.3877C343.578 64.3623 344.164 63.1904 345.026 61.8721C345.873 60.5374 346.825 59.1377 347.883 57.6729C348.046 57.445 348.192 57.2415 348.322 57.0625C348.469 56.8509 348.607 56.6556 348.737 56.4766C348.868 56.2975 349.006 56.0941 349.152 55.8662C349.331 55.6383 349.649 55.4593 350.104 55.3291C350.56 55.1989 351.008 55.1419 351.447 55.1582C351.887 55.1582 352.172 55.2559 352.302 55.4512C352.416 55.6628 352.424 55.8581 352.326 56.0371C352.229 56.1999 352.074 56.3708 351.862 56.5498C351.732 56.68 351.594 56.8265 351.447 56.9893C351.382 57.0544 351.244 57.1927 351.032 57.4043C350.446 58.0065 349.632 58.9017 348.591 60.0898C347.533 61.2617 346.605 62.458 345.808 63.6787C345.01 64.8994 344.717 65.8516 344.929 66.5352C345.287 67.0723 346.963 66.5596 349.958 64.9971C352.953 63.4346 357.771 60.4154 364.411 55.9395ZM365.398 65.8027C365.708 66.0143 365.968 66.2992 366.18 66.6572C367.889 69.4079 365.765 74.9255 359.808 83.21C358.864 84.5771 357.122 86.8232 354.583 89.9482C352.028 93.0895 349.399 96.2389 346.697 99.3965C343.979 102.554 341.896 104.849 340.447 106.281C338.51 108.169 336.956 109.349 335.784 109.821C335.752 109.838 335.727 109.846 335.711 109.846C335.711 109.846 335.703 109.846 335.687 109.846C335.654 109.862 335.621 109.878 335.589 109.895C335.296 109.976 335.068 109.992 334.905 109.943C334.726 109.895 334.588 109.829 334.49 109.748C334.393 109.667 334.327 109.602 334.295 109.553C334.051 109.097 334.14 108.356 334.563 107.331C334.987 106.322 335.719 104.938 336.761 103.181C337.086 102.611 337.428 102.009 337.786 101.374C339.446 98.4769 341.212 95.5146 343.084 92.4873C345.363 88.8903 348.113 84.4714 351.336 79.2305C351.629 78.7585 351.922 78.2783 352.215 77.79C356.251 71.1982 360.963 63.6543 366.351 55.1582C371.754 46.6621 377.793 37.5719 384.466 27.8877C384.726 27.5296 385.035 27.2936 385.394 27.1797C385.768 27.0495 386.126 27.0413 386.468 27.1553C386.989 27.3506 387.257 27.6273 387.273 27.9854C387.29 28.3271 387.168 28.6771 386.907 29.0352C380.983 37.0592 372.902 48.7292 362.664 64.0449C362.583 64.2077 362.558 64.3379 362.591 64.4355C362.607 64.5169 362.729 64.5413 362.957 64.5088C363.185 64.4762 363.551 64.3623 364.056 64.167C368.564 62.3115 372.902 60.6595 377.068 59.2109C381.251 57.7461 384.531 56.6475 386.907 55.915C387.037 55.8662 387.135 55.8743 387.2 55.9395C387.265 56.0046 387.265 56.0859 387.2 56.1836C387.151 56.2812 387.013 56.3708 386.785 56.4521C384.588 57.1683 381.65 58.2344 377.972 59.6504C374.293 61.0664 370.265 62.7917 365.887 64.8262C365.577 64.9564 365.358 65.1029 365.228 65.2656C365.081 65.4121 365.138 65.5911 365.398 65.8027ZM359.1 82.5996C361.378 79.3607 362.868 76.7402 363.567 74.7383C364.251 72.7526 364.52 71.2552 364.373 70.2461C364.227 69.237 364.039 68.6022 363.812 68.3418C363.551 67.9186 363.201 67.6582 362.762 67.5605C362.306 67.4629 361.899 67.4303 361.541 67.4629C361.281 67.4792 360.955 67.5931 360.564 67.8047C360.174 68.0163 359.751 68.4557 359.295 69.123C354.852 75.8451 350.758 82.1602 347.015 88.0684C343.255 93.9928 340.293 98.8594 338.128 102.668C335.947 106.477 334.995 108.592 335.271 109.016C335.809 109.357 336.883 108.796 338.494 107.331C340.105 105.882 341.977 103.929 344.109 101.472C346.242 99.014 348.374 96.4505 350.506 93.7812C352.622 91.1283 354.469 88.7682 356.048 86.7012C357.61 84.6341 358.628 83.2669 359.1 82.5996ZM409.477 55.915C409.525 55.9476 409.534 56.0046 409.501 56.0859C409.468 56.1673 409.395 56.2487 409.281 56.3301C409.265 56.3301 409.257 56.3301 409.257 56.3301C409.257 56.3301 409.257 56.3382 409.257 56.3545C405.074 58.9749 401.103 61.0664 397.343 62.6289C393.583 64.1914 390.694 64.8913 388.676 64.7285C387.357 64.6471 386.43 64.1995 385.893 63.3857C385.29 62.1813 385.437 60.6758 386.332 58.8691C386.592 58.3646 386.877 57.8926 387.187 57.4531C387.431 57.0951 387.675 56.7533 387.919 56.4277C389.042 55.1419 389.97 54.2061 390.702 53.6201C390.767 53.555 390.824 53.498 390.873 53.4492C390.889 53.4492 390.897 53.4411 390.897 53.4248C391.402 53.0179 391.89 52.6354 392.362 52.2773C395.731 49.8359 398.197 48.9082 399.76 49.4941C400.134 49.6569 400.419 49.9092 400.614 50.251C400.81 50.5765 400.834 50.9671 400.688 51.4229C400.476 51.9925 400.02 52.5133 399.32 52.9854C398.637 53.4574 397.823 53.8724 396.879 54.2305C394.877 54.9792 392.997 55.5407 391.239 55.915C391.028 55.9476 390.718 56.0778 390.312 56.3057C389.921 56.5173 389.506 56.8428 389.066 57.2822C389.05 57.2985 389.042 57.3066 389.042 57.3066C389.009 57.3555 388.969 57.4043 388.92 57.4531C387.96 58.5273 387.333 59.6992 387.04 60.9688C387.04 61.8639 387.374 62.5312 388.041 62.9707C388.708 63.3939 389.506 63.6055 390.434 63.6055C392.257 63.6055 394.804 62.93 398.075 61.5791C401.347 60.2282 405.066 58.3402 409.232 55.915C409.346 55.8499 409.428 55.8499 409.477 55.915ZM391.459 55.1338C391.329 55.2314 391.247 55.3128 391.215 55.3779C391.182 55.443 391.256 55.4593 391.435 55.4268C392.33 55.2152 393.38 54.9059 394.584 54.499C395.463 54.2061 396.187 53.8968 396.757 53.5713C397.343 53.2295 397.587 52.9202 397.489 52.6436C397.489 52.6436 397.489 52.6354 397.489 52.6191C397.489 52.6191 397.481 52.611 397.465 52.5947C397.465 52.5785 397.465 52.5703 397.465 52.5703C397.335 52.4238 397.107 52.3587 396.781 52.375C396.521 52.4076 396.212 52.4808 395.854 52.5947C395.837 52.5947 395.829 52.5947 395.829 52.5947C395.829 52.611 395.829 52.6191 395.829 52.6191C395.78 52.6191 395.731 52.6354 395.683 52.668C395.683 52.668 395.674 52.668 395.658 52.668C395.658 52.668 395.65 52.668 395.634 52.668C395.194 52.8307 394.698 53.0749 394.145 53.4004C393.282 53.8561 392.387 54.4339 391.459 55.1338Z" fill="#FFD057"/>
</svg>
