<svg width="22" height="16" viewBox="0 0 22 16" fill="none" xmlns="http://www.w3.org/2000/svg">
<path d="M4.208 2.232C3.984 2.232 3.808 2.27467 3.68 2.36C3.56267 2.44533 3.47733 2.60533 3.424 2.84C3.38133 3.07467 3.36 3.42667 3.36 3.896V5.768C3.36 6.26933 3.30133 6.68 3.184 7C3.07733 7.32 2.944 7.57067 2.784 7.752C2.624 7.92267 2.464 8.056 2.304 8.152C2.45333 8.248 2.608 8.38667 2.768 8.568C2.928 8.73867 3.06667 8.968 3.184 9.256C3.30133 9.544 3.36 9.90667 3.36 10.344V12.44C3.36 12.8987 3.38133 13.2453 3.424 13.48C3.47733 13.7253 3.56267 13.8907 3.68 13.976C3.808 14.0613 3.984 14.104 4.208 14.104H4.912V15.416H3.888C3.62133 15.416 3.36533 15.4053 3.12 15.384C2.87467 15.3733 2.65067 15.3093 2.448 15.192C2.256 15.0747 2.10133 14.8667 1.984 14.568C1.86667 14.28 1.808 13.8533 1.808 13.288V10.76C1.808 10.4507 1.76533 10.1467 1.68 9.848C1.59467 9.54933 1.456 9.29867 1.264 9.096C1.08267 8.89333 0.837333 8.792 0.528 8.792V7.48C0.837333 7.46933 1.08267 7.368 1.264 7.176C1.456 6.97333 1.59467 6.72267 1.68 6.424C1.76533 6.11467 1.808 5.80533 1.808 5.496V2.84C1.808 2.33867 1.86667 1.95467 1.984 1.688C2.10133 1.42133 2.256 1.23467 2.448 1.128C2.65067 1.02133 2.87467 0.962666 3.12 0.952C3.376 0.930666 3.632 0.919999 3.888 0.919999H4.912V2.232H4.208ZM10.6326 13.048C9.98196 13.048 9.38463 12.9253 8.84063 12.68C8.29663 12.4347 7.82729 12.0827 7.43263 11.624C7.04863 11.1547 6.74996 10.5893 6.53663 9.928C6.32329 9.26667 6.21663 8.52533 6.21663 7.704C6.21663 6.808 6.31796 6.02933 6.52063 5.368C6.72329 4.696 7.01663 4.136 7.40063 3.688C7.79529 3.24 8.26463 2.90933 8.80863 2.696C9.35263 2.472 9.96063 2.36 10.6326 2.36C11.2833 2.36 11.8753 2.48267 12.4086 2.728C12.9526 2.97333 13.4166 3.33067 13.8006 3.8C14.1953 4.25867 14.4993 4.81867 14.7126 5.48C14.9366 6.13067 15.0486 6.872 15.0486 7.704C15.0486 8.54667 14.9366 9.29867 14.7126 9.96C14.4993 10.6213 14.1953 11.1813 13.8006 11.64C13.4166 12.0987 12.9526 12.4507 12.4086 12.696C11.8753 12.9307 11.2833 13.048 10.6326 13.048ZM10.6166 11.56C11.2353 11.56 11.7526 11.4 12.1686 11.08C12.5953 10.7493 12.9153 10.2907 13.1286 9.704C13.342 9.11733 13.4486 8.44 13.4486 7.672C13.4486 6.904 13.342 6.23733 13.1286 5.672C12.9153 5.096 12.5953 4.648 12.1686 4.328C11.7526 4.008 11.2353 3.848 10.6166 3.848C9.99796 3.848 9.48063 4.01333 9.06463 4.344C8.64863 4.664 8.33396 5.112 8.12063 5.688C7.91796 6.264 7.81663 6.936 7.81663 7.704C7.81663 8.46133 7.91796 9.13333 8.12063 9.72C8.33396 10.296 8.64863 10.7493 9.06463 11.08C9.48063 11.4 9.99796 11.56 10.6166 11.56ZM17.3534 14.104C17.5774 14.104 17.748 14.0613 17.8654 13.976C17.9827 13.8907 18.0627 13.7253 18.1054 13.48C18.1587 13.2453 18.1854 12.8987 18.1854 12.44V10.344C18.1854 9.896 18.244 9.528 18.3614 9.24C18.4894 8.952 18.6334 8.72267 18.7934 8.552C18.964 8.38133 19.1134 8.25867 19.2414 8.184C19.1134 8.07733 18.964 7.93867 18.7934 7.768C18.6227 7.59733 18.4787 7.368 18.3614 7.08C18.244 6.78133 18.1854 6.41333 18.1854 5.976V3.88C18.1854 3.41067 18.1587 3.05867 18.1054 2.824C18.0627 2.58933 17.9827 2.43467 17.8654 2.36C17.748 2.27467 17.5774 2.232 17.3534 2.232H16.6334V0.919999H17.6414C17.8974 0.919999 18.148 0.925333 18.3934 0.936C18.6387 0.946666 18.8627 1.00533 19.0654 1.112C19.268 1.21867 19.428 1.40533 19.5454 1.672C19.6734 1.93867 19.7374 2.32267 19.7374 2.824V5.352C19.7374 5.56533 19.7534 5.8 19.7854 6.056C19.828 6.30133 19.892 6.536 19.9774 6.76C20.0734 6.984 20.2067 7.17067 20.3774 7.32C20.548 7.45867 20.7614 7.53333 21.0174 7.544V8.856C20.7614 8.856 20.548 8.93067 20.3774 9.08C20.2067 9.22933 20.0734 9.416 19.9774 9.64C19.892 9.85333 19.828 10.088 19.7854 10.344C19.7534 10.5893 19.7374 10.824 19.7374 11.048V13.496C19.7374 13.9973 19.6787 14.3813 19.5614 14.648C19.444 14.9147 19.284 15.1013 19.0814 15.208C18.8787 15.3147 18.6547 15.3733 18.4094 15.384C18.164 15.4053 17.908 15.416 17.6414 15.416H16.6334V14.104H17.3534Z" fill="white"/>
</svg>
